# xmcd
# 
# Track frame offsets:
#     150
#     17172
#     32970
#     43860
#     56992
#     81335
#     99485
#     117362
#     136252
#     151600
#     167675
#     184842
#     206445
#     217880
#     239210
# 
# Disc length: 3397
# 
# Revision: 2
# Processed by: cddbd v1.5.2PL0 Copyright (c) Steve Scherf et al.
# Submitted via: fre:ac v1.0.17
# 
DISCID=d30d430f
DTITLE=Various Artist - Songs of the Siren Volume II
DYEAR=0
DGENRE=
TTITLE0=Diana Krall - Lost Mind
TTITLE1=Holly Cole - I've Just Seen A Face
TTITLE2=Sarah Vaughan - Broken Hearted Melody
TTITLE3=Suzanne Vega - Caramel
TTITLE4=Shawn Colvin - The Facts about Jimmy
TTITLE5=Sarah McLachlan - Fear
TTITLE6=Gillian Welch - Pass You By
TTITLE7=Loreena McKennitt - Tango to Evora
TTITLE8=Last Forever - Hide and Seek
TTITLE9=Billie Holiday - A Fine Romance
TTITLE10=Alison Krauss - Baby, Now That I've Found You
TTITLE11=Beth Orton - She Cries Your Name
TTITLE12=Nina Simone - I Want A Little Sugar In My Bowl
TTITLE13=Etta James - I'll Be Seeing You
TTITLE14=Ella Fitzgerald - I've Got a Crush on You
EXTD=
EXTT0=sung by Diana Krall\n
EXTT1=sung by Holly Cole\n
EXTT2=sung by Sarah Vaughan\n
EXTT3=sung by Suzanne Vega\n
EXTT4=sung by Shawn Colvin\n
EXTT5=sung by Sarah McLachlan\n
EXTT6=sung by Gillian Welch\n
EXTT7=sung by Loreena McKennitt\n
EXTT8=sung by Last Forever\n
EXTT9=sung by Billie Holiday\n
EXTT10=sung by Alison Krauss\n
EXTT11=sung by Beth Orton\n
EXTT12=sung by Nina Simone\n
EXTT13=sung by Etta James\n
EXTT14=sung by Ella Fitzgerald\n
PLAYORDER=
